<?xml version="1.0" encoding="UTF-8" standalone="no"?>
<!-- Created with Inkscape (http://www.inkscape.org/) -->

<svg
   width="262.69699"
   height="100"
   viewBox="0 0 69.505244 26.458333"
   version="1.1"
   id="svg1"
   inkscape:version="1.3.2 (091e20e, 2023-11-25, custom)"
   sodipodi:docname="globaltech.svg"
   xml:space="preserve"
   inkscape:export-filename="GlobalTech.png"
   inkscape:export-xdpi="96"
   inkscape:export-ydpi="96"
   xmlns:inkscape="http://www.inkscape.org/namespaces/inkscape"
   xmlns:sodipodi="http://sodipodi.sourceforge.net/DTD/sodipodi-0.dtd"
   xmlns="http://www.w3.org/2000/svg"
   xmlns:svg="http://www.w3.org/2000/svg"><sodipodi:namedview
     id="namedview1"
     pagecolor="#505050"
     bordercolor="#eeeeee"
     borderopacity="1"
     inkscape:showpageshadow="0"
     inkscape:pageopacity="0"
     inkscape:pagecheckerboard="0"
     inkscape:deskcolor="#505050"
     inkscape:document-units="px"
     inkscape:zoom="1.0570195"
     inkscape:cx="-52.506127"
     inkscape:cy="-101.70106"
     inkscape:window-width="1920"
     inkscape:window-height="1017"
     inkscape:window-x="1432"
     inkscape:window-y="-8"
     inkscape:window-maximized="1"
     inkscape:current-layer="g2"
     showguides="true" /><defs
     id="defs1"><inkscape:path-effect
       effect="fillet_chamfer"
       id="path-effect6"
       is_visible="true"
       lpeversion="1"
       nodesatellites_param="F,0,0,1,0,0,0,1 @ F,0,0,1,0,0,0,1 @ F,0,0,1,0,0,0,1"
       radius="0"
       unit="px"
       method="auto"
       mode="F"
       chamfer_steps="1"
       flexible="false"
       use_knot_distance="true"
       apply_no_radius="true"
       apply_with_radius="true"
       only_selected="false"
       hide_knots="false" /><inkscape:path-effect
       effect="fillet_chamfer"
       id="path-effect33"
       is_visible="true"
       lpeversion="1"
       nodesatellites_param="F,0,0,1,0,0,0,1 @ F,0,0,1,0,0,0,1 @ F,0,0,1,0,0,0,1"
       radius="0"
       unit="px"
       method="auto"
       mode="F"
       chamfer_steps="1"
       flexible="false"
       use_knot_distance="true"
       apply_no_radius="true"
       apply_with_radius="true"
       only_selected="false"
       hide_knots="false" /><style
       id="style1">.cls-1{fill:#fff;}</style></defs><g
     inkscape:label="Layer 1"
     inkscape:groupmode="layer"
     id="layer1"><g
       id="g2"
       transform="matrix(0.82004977,0,0,0.82004977,-445.49112,-7.5908231)"><g
         id="text34"
         style="font-size:12.366px;font-family:Bhotten;-inkscape-font-specification:Bhotten;text-align:center;letter-spacing:0px;word-spacing:-0.314464px;text-anchor:middle;stroke-width:0.813895;stroke-linecap:round;stroke-linejoin:round"
         aria-label="Global Tech"><path
           style="font-family:'Myriad Hebrew';-inkscape-font-specification:'Myriad Hebrew'"
           d="m 563.24161,29.785221 h -2.74525 v 0.86562 h 1.69414 v 2.485566 c -0.24732,0.12366 -0.7296,0.222588 -1.43446,0.222588 -1.95383,0 -3.21516,-1.248966 -3.21516,-3.363552 0,-2.089855 1.32316,-3.351187 3.35119,-3.351187 0.84089,0 1.39736,0.160758 1.84253,0.358614 l 0.25969,-0.877986 c -0.34625,-0.160758 -1.11294,-0.383346 -2.07749,-0.383346 -2.79472,0 -4.50122,1.830168 -4.51359,4.303369 0,1.29843 0.44518,2.41137 1.1624,3.103866 0.81616,0.779058 1.8549,1.100574 3.11624,1.100574 1.1253,0 2.07748,-0.284418 2.55976,-0.457542 z m 1.60758,4.377564 h 1.07584 v -8.779861 h -1.07584 z m 5.45341,-6.108805 c -1.61995,0 -2.98021,1.137673 -2.98021,3.140965 0,1.929096 1.2737,3.103866 2.84418,3.103866 1.385,0 3.00494,-0.915084 3.00494,-3.128598 0,-1.91673 -1.1995,-3.116233 -2.86891,-3.116233 z m -0.0618,0.803791 c 1.34789,0 1.83017,1.286064 1.83017,2.324808 0,1.211868 -0.64303,2.300076 -1.83017,2.300076 -1.21187,0 -1.8178,-1.088208 -1.8178,-2.28771 0,-1.063476 0.48227,-2.337174 1.8178,-2.337174 z m 4.30337,3.77163 c 0,0.519372 -0.0247,1.125306 -0.0495,1.533384 h 0.93982 l 0.0495,-0.976914 h 0.0247 c 0.45755,0.779058 1.15004,1.11294 2.01566,1.11294 1.32316,0 2.69579,-1.063476 2.69579,-3.202794 0,-1.805436 -1.05111,-3.042037 -2.53503,-3.042037 -0.96455,0 -1.65704,0.420444 -2.04039,1.088209 h -0.0247 v -3.759265 h -1.07584 z m 1.07584,-1.941462 c 0,-0.173124 0.0371,-0.30915 0.0618,-0.445176 0.22259,-0.828522 0.91508,-1.335528 1.64468,-1.335528 1.17477,0 1.79307,1.026378 1.79307,2.22588 0,1.372626 -0.66777,2.300076 -1.81781,2.300076 -0.77905,0 -1.42209,-0.507006 -1.63231,-1.273698 -0.0371,-0.12366 -0.0495,-0.259686 -0.0495,-0.395712 z m 10.17721,-0.18549 c 0,-1.199502 -0.44517,-2.448469 -2.27534,-2.448469 -0.74196,0 -1.47156,0.197856 -1.9662,0.519372 l 0.24732,0.717229 c 0.40808,-0.272052 1.00165,-0.445176 1.55812,-0.445176 1.21187,0 1.36026,0.890352 1.36026,1.384992 v 0.136026 c -2.31244,-0.02473 -3.59851,0.766692 -3.59851,2.213514 0,0.853254 0.63067,1.718874 1.83017,1.718874 0.85326,0 1.49629,-0.43281 1.83017,-0.890352 h 0.0247 l 0.0989,0.754326 h 0.97691 c -0.0618,-0.408078 -0.0866,-0.915084 -0.0866,-1.434456 z m -1.05111,1.644678 c 0,0.111294 -0.0247,0.222588 -0.0495,0.346248 -0.18549,0.507006 -0.66777,1.001646 -1.45919,1.001646 -0.5441,0 -1.02638,-0.321516 -1.02638,-1.038744 0,-1.162404 1.3479,-1.372626 2.53503,-1.335528 z m 2.80709,2.015658 h 1.07584 v -8.779861 h -1.07584 z"
           id="path1" /><path
           style="font-family:'Myriad Hebrew';-inkscape-font-specification:'Myriad Hebrew';fill:#800000"
           d="m 594.39862,34.162785 h 1.0882 v -7.419601 h 2.5474 V 25.8281 h -6.17063 v 0.915084 h 2.53503 z m 8.4336,-2.794716 c 0.0247,-0.111294 0.0495,-0.284418 0.0495,-0.507006 0,-1.100574 -0.51938,-2.807083 -2.46084,-2.807083 -1.75597,0 -2.81945,1.409725 -2.81945,3.227527 0,1.79307 1.10058,3.017304 2.94311,3.017304 0.95218,0 1.61995,-0.210222 1.99093,-0.383346 l -0.18549,-0.779058 c -0.39571,0.173124 -0.87799,0.30915 -1.65705,0.30915 -1.10057,0 -2.02802,-0.605934 -2.05275,-2.077488 z m -4.17971,-0.779058 c 0.0866,-0.754326 0.56884,-1.755972 1.66941,-1.755972 1.22424,0 1.52102,1.075842 1.50866,1.755972 z m 9.65784,2.53503 c -0.30915,0.136026 -0.71723,0.296784 -1.32316,0.296784 -1.1995,0 -2.08985,-0.853254 -2.08985,-2.238246 0,-1.2366 0.74196,-2.262978 2.11458,-2.262978 0.59357,0 1.00165,0.136026 1.26133,0.284418 l 0.24732,-0.840889 c -0.29678,-0.148392 -0.87798,-0.30915 -1.50865,-0.30915 -1.95383,0 -3.21516,1.347895 -3.21516,3.190429 0,1.830168 1.17477,3.054402 2.98021,3.054402 0.80379,0 1.43445,-0.210222 1.71887,-0.358614 z m 1.45919,1.038744 h 1.07584 v -3.610872 c 0,-0.197856 0.0247,-0.358614 0.0866,-0.531738 0.19786,-0.568836 0.74196,-1.075842 1.45919,-1.075842 1.02638,0 1.38499,0.80379 1.38499,1.780704 v 3.437748 h 1.07584 v -3.561408 c 0,-2.065123 -1.27369,-2.547397 -2.07748,-2.547397 -0.40808,0 -0.79143,0.111294 -1.11294,0.296784 -0.33389,0.18549 -0.60594,0.457543 -0.79143,0.766693 h -0.0247 v -3.734533 h -1.07584 z"
           id="path14" /></g><g
         id="g1"
         transform="translate(-2.7278513)"><path
           id="rect20"
           style="fill:#000000;stroke-width:1.48595;stroke-linecap:round;stroke-linejoin:round"
           d="m 581.9273,14.41356 6.42811,6.428112 v 2.377868 l -7.25701,-7.257006 z"
           sodipodi:nodetypes="ccccc" /><path
           id="rect22"
           style="fill:#000000;stroke-width:1.48595;stroke-linecap:round;stroke-linejoin:round"
           d="m 567.50364,14.41356 14.42363,-3e-6 -0.82887,1.548977 -12.0458,-1.2e-5 z"
           sodipodi:nodetypes="ccccc" /><path
           id="path24"
           style="fill:#000000;stroke-width:1.48595;stroke-linecap:round;stroke-linejoin:round"
           d="m 570.05518,16.965094 9.24505,-6e-6 1.61535,1.548959 -9.31144,9e-6 z"
           sodipodi:nodetypes="ccccc" /><path
           id="path27"
           style="fill:#000000;stroke-width:1.48595;stroke-linecap:round;stroke-linejoin:round"
           d="m 572.4106,19.32052 9.24505,-6e-6 1.83402,1.834014 h -9.24506 z"
           sodipodi:nodetypes="ccccc" /><g
           id="g47"
           style="fill:#800000"><path
             id="path19"
             style="fill:#800000;fill-opacity:1;stroke:none;stroke-width:1.48623;stroke-linecap:round;stroke-linejoin:round;stroke-dasharray:none"
             d="m 585.41613,10.494016 a 2.3948712,2.3948712 0 0 0 -2.3946,2.394606 2.3948712,2.3948712 0 0 0 2.3946,2.395123 2.3948712,2.3948712 0 0 0 2.39512,-2.395123 2.3948712,2.3948712 0 0 0 -2.39512,-2.394606 z m 0,0.962184 a 1.4324852,1.4324852 0 0 1 1.43242,1.432422 1.4324852,1.4324852 0 0 1 -1.43242,1.432423 1.4324852,1.4324852 0 0 1 -1.43243,-1.432423 1.4324852,1.4324852 0 0 1 1.43243,-1.432422 z" /><path
             id="rect16"
             style="fill:#800000;stroke-width:0.999967;stroke-linecap:round;stroke-linejoin:round"
             d="m 581.78414,9.2565395 6.57125,1.7607695 2e-5,4.810499 -1.54707,-1.547065 z"
             sodipodi:nodetypes="ccccc" /><path
             id="path28"
             style="fill:#800000;fill-opacity:1;stroke:none;stroke-width:1.48623;stroke-linecap:round;stroke-linejoin:round;stroke-dasharray:none"
             d="m 591.29469,10.494016 a 2.3948712,2.3948712 0 0 1 2.3946,2.394606 2.3948712,2.3948712 0 0 1 -2.3946,2.395123 2.3948712,2.3948712 0 0 1 -2.39512,-2.395123 2.3948712,2.3948712 0 0 1 2.39512,-2.394606 z m 0,0.962184 a 1.4324852,1.4324852 0 0 0 -1.43242,1.432422 1.4324852,1.4324852 0 0 0 1.43242,1.432423 1.4324852,1.4324852 0 0 0 1.43243,-1.432423 1.4324852,1.4324852 0 0 0 -1.43243,-1.432422 z" /><path
             id="path29"
             style="fill:#800000;stroke-width:0.999967;stroke-linecap:round;stroke-linejoin:round"
             d="m 594.92668,9.2565395 -6.57125,1.7607695 -2e-5,4.810499 1.54707,-1.547065 z"
             sodipodi:nodetypes="ccccc" /></g><path
           id="path30"
           style="fill:#000000;stroke-width:1.48595;stroke-linecap:round;stroke-linejoin:round"
           d="m 594.78352,14.41356 -6.42811,6.428112 v 2.377868 l 7.25701,-7.257006 z"
           sodipodi:nodetypes="ccccc" /><path
           id="path31"
           style="fill:#000000;stroke-width:1.48595;stroke-linecap:round;stroke-linejoin:round"
           d="m 609.20718,14.41356 -14.42363,-3e-6 0.82887,1.548977 12.0458,-1.2e-5 z"
           sodipodi:nodetypes="ccccc" /><path
           id="path32"
           style="fill:#000000;stroke-width:1.48595;stroke-linecap:round;stroke-linejoin:round"
           d="m 606.65564,16.965094 -9.24505,-6e-6 -1.61535,1.548959 9.31144,9e-6 z"
           sodipodi:nodetypes="ccccc" /><path
           id="path33"
           style="fill:#000000;stroke-width:1.48595;stroke-linecap:round;stroke-linejoin:round"
           d="m 604.30022,19.32052 -9.24505,-6e-6 -1.83402,1.834014 h 9.24506 z"
           sodipodi:nodetypes="ccccc" /></g><path
         style="font-weight:300;font-size:5.06878px;font-family:Raleway;-inkscape-font-specification:'Raleway Light';text-align:center;letter-spacing:0px;word-spacing:-0.128898px;text-anchor:middle;stroke-width:0.333613;stroke-linecap:round;stroke-linejoin:round"
         d="m 545.02303,36.817013 h 0.25344 l 0.53729,1.307745 0.53729,-1.307745 h 0.25344 l -0.6336,1.515565 0.75525,1.753798 1.3787,-3.294707 h 0.28386 l -1.54091,3.598834 h -0.23824 l -0.79072,-1.850105 -0.7958,1.850105 h -0.23824 l -1.53584,-3.598834 h 0.27879 l 1.38377,3.294707 0.74511,-1.753798 z m 4.61765,3.624178 q -0.27878,0 -0.51701,-0.106445 -0.23824,-0.111513 -0.41564,-0.299058 -0.17234,-0.192613 -0.27372,-0.440984 -0.0963,-0.253439 -0.0963,-0.532221 0,-0.37509 0.16727,-0.679217 0.16727,-0.304127 0.46126,-0.486603 0.29399,-0.187545 0.65895,-0.187545 0.37508,0 0.66401,0.187545 0.28892,0.187545 0.45619,0.496741 0.17233,0.304126 0.17233,0.669079 0,0.03041 0,0.06083 0,0.03041 -0.005,0.05069 h -2.31137 q 0.0203,0.299058 0.16727,0.542359 0.147,0.243302 0.37509,0.385227 0.23316,0.136858 0.50688,0.136858 0.27371,0 0.51701,-0.141926 0.24331,-0.141926 0.33961,-0.364952 l 0.22303,0.06083 q -0.076,0.187545 -0.2433,0.334539 -0.1622,0.146995 -0.38523,0.233164 -0.21796,0.0811 -0.46126,0.0811 z m -1.04924,-1.464878 h 2.08327 q -0.0203,-0.309195 -0.1622,-0.547428 -0.14192,-0.238233 -0.37509,-0.37509 -0.22809,-0.136857 -0.50688,-0.136857 -0.27878,0 -0.50687,0.136857 -0.2281,0.136857 -0.37003,0.37509 -0.14192,0.238233 -0.1622,0.547428 z m 4.11585,1.464878 q -0.30919,0 -0.57784,-0.162201 -0.26864,-0.16727 -0.42071,-0.41564 v 0.527153 h -0.23316 v -3.700209 h 0.25344 v 1.637215 q 0.18754,-0.273714 0.44098,-0.446052 0.25851,-0.172339 0.59305,-0.172339 0.28385,0 0.50181,0.116582 0.22303,0.116582 0.38016,0.314265 0.15713,0.197682 0.23823,0.440983 0.0862,0.243302 0.0862,0.50181 0,0.268645 -0.0963,0.517015 -0.0963,0.243302 -0.26864,0.435915 -0.17234,0.187545 -0.40044,0.299058 -0.22809,0.106445 -0.49674,0.106445 z m -0.0507,-0.228095 q 0.23316,0 0.42577,-0.09124 0.19262,-0.09631 0.32947,-0.258508 0.14193,-0.162201 0.21796,-0.364952 0.0811,-0.202752 0.0811,-0.41564 0,-0.299058 -0.12672,-0.557566 -0.12672,-0.263577 -0.35481,-0.425778 -0.2281,-0.162201 -0.52715,-0.162201 -0.22303,0 -0.41058,0.101376 -0.18754,0.09631 -0.32947,0.253439 -0.13685,0.157132 -0.23316,0.344677 v 0.87183 q 0.0203,0.146995 0.11151,0.278783 0.0912,0.12672 0.2281,0.223026 0.14192,0.09124 0.29399,0.146995 0.15713,0.05576 0.29399,0.05576 z m 5.64444,0.177407 -1.82477,-1.915999 q -0.21795,-0.233164 -0.34974,-0.395365 -0.13179,-0.167269 -0.18755,-0.299058 -0.0557,-0.136857 -0.0557,-0.263576 0,-0.212889 0.11658,-0.385228 0.11658,-0.177407 0.31426,-0.278782 0.20276,-0.106445 0.45113,-0.106445 0.23316,0 0.41564,0.09124 0.18247,0.08617 0.28385,0.243302 0.10644,0.152063 0.10644,0.354814 0,0.217958 -0.13179,0.400434 -0.12672,0.177407 -0.33961,0.334539 -0.20782,0.157132 -0.44605,0.314265 -0.21289,0.146994 -0.40043,0.299058 -0.18248,0.146994 -0.29399,0.319333 -0.10644,0.172338 -0.10644,0.395365 0,0.243301 0.13685,0.405502 0.13686,0.162201 0.34468,0.24837 0.21289,0.0811 0.43085,0.0811 0.28892,0 0.52715,-0.12672 0.23823,-0.131788 0.41057,-0.354814 0.17741,-0.228095 0.26865,-0.517016 0.0963,-0.28892 0.0963,-0.608253 h 0.22303 q 0,0.364952 -0.11658,0.689354 -0.11152,0.324401 -0.31934,0.57784 -0.20782,0.253439 -0.49167,0.400434 -0.28385,0.146995 -0.62853,0.146995 -0.29906,0 -0.55756,-0.116582 -0.25851,-0.116582 -0.41564,-0.329471 -0.15714,-0.212889 -0.15714,-0.506878 0,-0.268645 0.12672,-0.471396 0.12672,-0.202752 0.33454,-0.364953 0.20782,-0.167269 0.44099,-0.324402 0.24837,-0.1622 0.43591,-0.299058 0.18755,-0.141925 0.28892,-0.278782 0.10645,-0.141926 0.10645,-0.304127 0,-0.212889 -0.16727,-0.349746 -0.1622,-0.141926 -0.41057,-0.141926 -0.18248,0 -0.32947,0.07603 -0.14193,0.07603 -0.2281,0.202751 -0.0811,0.12672 -0.0811,0.278783 0,0.08617 0.0405,0.187545 0.0406,0.09631 0.15713,0.24837 0.11658,0.146995 0.33961,0.380158 l 1.98189,2.062994 z m 3.4598,0.02534 q -0.36495,0 -0.67415,-0.157132 -0.3092,-0.157133 -0.53729,-0.41564 -0.2281,-0.263577 -0.35481,-0.587979 -0.12166,-0.32947 -0.12166,-0.669079 0,-0.354814 0.12166,-0.679216 0.12165,-0.329471 0.34467,-0.58291 0.22303,-0.258508 0.52716,-0.405502 0.30412,-0.152064 0.66401,-0.152064 0.53729,0 0.86676,0.223027 0.33454,0.217957 0.50687,0.562634 l -0.21288,0.12672 q -0.18248,-0.354815 -0.48661,-0.511947 -0.29905,-0.162201 -0.67921,-0.162201 -0.31934,0 -0.57784,0.136857 -0.25851,0.131788 -0.44099,0.359883 -0.18247,0.223027 -0.27878,0.506878 -0.0963,0.283852 -0.0963,0.58291 0,0.319333 0.11152,0.603185 0.11151,0.283852 0.30919,0.506878 0.19768,0.223026 0.46126,0.349746 0.26358,0.126719 0.56263,0.126719 0.34975,0 0.65895,-0.16727 0.30919,-0.172338 0.59304,-0.53729 v 0.28892 q -0.53729,0.653873 -1.26719,0.653873 z m 1.21144,-1.566253 h -0.81608 v -0.20782 h 1.0391 v 1.748729 h -0.22302 z m 2.15423,-0.866762 q -0.35481,0.01014 -0.62346,0.212889 -0.26357,0.197683 -0.37002,0.547428 v 1.647354 h -0.25344 v -2.635766 h 0.2433 v 0.648804 q 0.13686,-0.278783 0.36496,-0.451121 0.22809,-0.177408 0.48153,-0.202751 0.0507,-0.0051 0.0912,-0.0051 0.0406,0 0.0659,0 z m 0.2433,1.647354 q 0,-0.238233 0.14193,-0.410571 0.14192,-0.177408 0.39029,-0.273714 0.24837,-0.101376 0.57278,-0.101376 0.20275,0 0.42071,0.03548 0.21795,0.03548 0.39029,0.09631 v -0.24837 q 0,-0.364952 -0.21289,-0.58291 -0.20782,-0.217957 -0.57784,-0.217957 -0.19768,0 -0.41057,0.0811 -0.21289,0.0811 -0.43591,0.233164 l -0.10645,-0.182476 q 0.25851,-0.172338 0.49674,-0.258508 0.2433,-0.09124 0.48154,-0.09124 0.47139,0 0.74511,0.278783 0.27371,0.278783 0.27371,0.760317 v 1.307745 q 0,0.06083 0.0253,0.09124 0.0304,0.03041 0.0862,0.03548 v 0.20782 q -0.0456,0.0051 -0.076,0.0051 -0.0304,0 -0.0507,0 -0.0963,-0.01521 -0.15206,-0.0811 -0.0507,-0.06589 -0.0558,-0.146994 v -0.20782 q -0.18247,0.228095 -0.47139,0.354814 -0.28385,0.12672 -0.59812,0.12672 -0.24837,0 -0.45112,-0.106445 -0.19768,-0.106444 -0.31426,-0.28892 -0.11152,-0.187545 -0.11152,-0.41564 z m 1.81463,0.217957 q 0.0507,-0.06589 0.076,-0.126719 0.0253,-0.06083 0.0253,-0.111513 v -0.435915 q -0.18247,-0.07096 -0.38016,-0.106445 -0.19768,-0.03548 -0.4055,-0.03548 -0.39536,0 -0.64373,0.157132 -0.24331,0.157132 -0.24331,0.425778 0,0.167269 0.0862,0.309195 0.0862,0.141926 0.23824,0.228095 0.15713,0.08617 0.35988,0.08617 0.28385,0 0.52208,-0.106445 0.2433,-0.111513 0.36496,-0.283852 z m 2.41274,0.593048 q -0.33961,0 -0.60825,-0.177408 -0.26358,-0.182476 -0.42578,-0.440983 v 1.647353 h -0.25344 v -3.715416 h 0.23316 v 0.527153 q 0.1622,-0.253439 0.43085,-0.410571 0.26864,-0.162201 0.5677,-0.162201 0.27879,0 0.50688,0.116582 0.2281,0.111513 0.39537,0.309196 0.17233,0.192613 0.26357,0.435915 0.0963,0.243301 0.0963,0.506878 0,0.364952 -0.15206,0.679216 -0.15207,0.309196 -0.42578,0.496741 -0.26865,0.187545 -0.62853,0.187545 z m -0.0608,-0.228095 q 0.23317,0 0.41564,-0.09631 0.18755,-0.09631 0.31934,-0.258508 0.13179,-0.162201 0.20275,-0.364952 0.071,-0.202751 0.071,-0.41564 0,-0.228095 -0.0811,-0.430846 -0.0811,-0.20782 -0.22809,-0.364953 -0.14193,-0.157132 -0.33454,-0.24837 -0.18755,-0.09631 -0.41058,-0.09631 -0.13685,0 -0.29398,0.05576 -0.15207,0.05576 -0.29399,0.157132 -0.13686,0.101376 -0.2281,0.233164 -0.0912,0.12672 -0.11151,0.263577 v 0.866761 q 0.0912,0.192614 0.23316,0.354815 0.147,0.157132 0.33961,0.253439 0.19261,0.09124 0.40043,0.09124 z m 4.02968,0.177407 h -0.25344 v -1.469946 q 0,-0.486603 -0.16727,-0.729905 -0.16727,-0.24837 -0.4866,-0.24837 -0.20782,0 -0.41564,0.106445 -0.20782,0.106444 -0.35988,0.293989 -0.15207,0.182476 -0.21796,0.41564 v 1.632147 h -0.25344 v -3.700209 h 0.25344 v 1.692972 q 0.1622,-0.309196 0.45112,-0.491672 0.28892,-0.182476 0.61332,-0.182476 0.22303,0 0.38016,0.0811 0.15713,0.0811 0.25851,0.233164 0.10137,0.152063 0.14699,0.364952 0.0507,0.212889 0.0507,0.486603 z m 0.76539,0 v -2.635766 h 0.25344 v 2.635766 z m 0,-3.233882 v -0.466327 h 0.25344 v 0.466327 z m 2.16944,3.28457 q -0.27372,0 -0.51195,-0.106445 -0.23823,-0.111513 -0.41564,-0.299058 -0.17741,-0.192613 -0.27878,-0.440984 -0.0963,-0.24837 -0.0963,-0.532221 0,-0.380159 0.16727,-0.684286 0.16727,-0.304127 0.46126,-0.486603 0.29399,-0.182476 0.66908,-0.182476 0.35988,0 0.6336,0.16727 0.27371,0.162201 0.41057,0.446053 l -0.24837,0.0811 q -0.11658,-0.217957 -0.33454,-0.339608 -0.21289,-0.12672 -0.4714,-0.12672 -0.28892,0 -0.52208,0.146995 -0.23317,0.146995 -0.37509,0.405502 -0.13686,0.253439 -0.13686,0.572773 0,0.314264 0.14193,0.57784 0.14192,0.263577 0.37509,0.420709 0.23823,0.152064 0.52208,0.152064 0.18248,0 0.35482,-0.06589 0.1774,-0.07096 0.30412,-0.182476 0.13179,-0.111513 0.17234,-0.238232 l 0.24837,0.07096 q -0.0659,0.187545 -0.22809,0.334539 -0.1622,0.141926 -0.38016,0.228095 -0.21289,0.0811 -0.46126,0.0811 z m 2.47356,0 q -0.31426,0 -0.58291,-0.106445 -0.26864,-0.106444 -0.47139,-0.324402 l 0.11658,-0.177407 q 0.21796,0.20782 0.44098,0.304127 0.22303,0.09124 0.48661,0.09124 0.3396,0 0.54742,-0.141926 0.21289,-0.141926 0.21289,-0.395365 0,-0.172338 -0.10137,-0.263576 -0.0963,-0.09631 -0.28385,-0.152064 -0.18248,-0.06083 -0.44606,-0.126719 -0.26864,-0.07096 -0.45619,-0.146995 -0.18247,-0.07603 -0.27371,-0.197682 -0.0912,-0.121651 -0.0912,-0.329471 0,-0.258508 0.12672,-0.425777 0.13179,-0.172339 0.34975,-0.253439 0.22302,-0.08617 0.49167,-0.08617 0.30919,0 0.53729,0.101376 0.23316,0.101376 0.35481,0.268645 l -0.13685,0.162201 q -0.12672,-0.162201 -0.32947,-0.238232 -0.20276,-0.0811 -0.44606,-0.0811 -0.18247,0 -0.34467,0.05069 -0.16221,0.05069 -0.26358,0.16727 -0.0963,0.111513 -0.0963,0.304126 0,0.152064 0.071,0.238233 0.076,0.08617 0.22302,0.141926 0.147,0.05069 0.36495,0.111513 0.3092,0.07603 0.53223,0.157132 0.22302,0.0811 0.34467,0.212889 0.12165,0.12672 0.12165,0.359883 0,0.359884 -0.27371,0.567704 -0.27371,0.20782 -0.72484,0.20782 z m 2.84648,-0.05069 v -3.598834 h 1.19623 q 0.57278,0 0.94787,0.243302 0.38015,0.238232 0.5677,0.648803 0.19261,0.405503 0.19261,0.902243 0,0.547429 -0.20782,0.952931 -0.20782,0.405502 -0.59304,0.628529 -0.38523,0.223026 -0.90732,0.223026 z m 2.64591,-1.804486 q 0,-0.451121 -0.17234,-0.805936 -0.16727,-0.354814 -0.49167,-0.552497 -0.31934,-0.202751 -0.78567,-0.202751 h -0.93772 v 3.132506 h 0.93772 q 0.4714,0 0.7958,-0.20782 0.3244,-0.20782 0.48661,-0.562634 0.16727,-0.359884 0.16727,-0.800868 z m 2.0123,1.855174 q -0.27879,0 -0.51702,-0.106445 -0.23823,-0.111513 -0.41564,-0.299058 -0.17234,-0.192613 -0.27371,-0.440984 -0.0963,-0.253439 -0.0963,-0.532221 0,-0.37509 0.16727,-0.679217 0.16727,-0.304127 0.46126,-0.486603 0.29399,-0.187545 0.65894,-0.187545 0.37509,0 0.66401,0.187545 0.28892,0.187545 0.45619,0.496741 0.17234,0.304126 0.17234,0.669079 0,0.03041 0,0.06083 0,0.03041 -0.005,0.05069 h -2.31136 q 0.0203,0.299058 0.16727,0.542359 0.14699,0.243302 0.37509,0.385227 0.23316,0.136858 0.50688,0.136858 0.27371,0 0.51701,-0.141926 0.2433,-0.141926 0.33961,-0.364952 l 0.22303,0.06083 q -0.076,0.187545 -0.24331,0.334539 -0.1622,0.146995 -0.38522,0.233164 -0.21796,0.0811 -0.46126,0.0811 z m -1.04924,-1.464878 h 2.08327 q -0.0203,-0.309195 -0.1622,-0.547428 -0.14193,-0.238233 -0.37509,-0.37509 -0.2281,-0.136857 -0.50688,-0.136857 -0.27878,0 -0.50688,0.136857 -0.22809,0.136857 -0.37002,0.37509 -0.14192,0.238233 -0.1622,0.547428 z m 3.71541,1.464878 q -0.31426,0 -0.58291,-0.106445 -0.26864,-0.106444 -0.47139,-0.324402 l 0.11658,-0.177407 q 0.21796,0.20782 0.44098,0.304127 0.22303,0.09124 0.48661,0.09124 0.3396,0 0.54742,-0.141926 0.21289,-0.141926 0.21289,-0.395365 0,-0.172338 -0.10137,-0.263576 -0.0963,-0.09631 -0.28385,-0.152064 -0.18248,-0.06083 -0.44606,-0.126719 -0.26864,-0.07096 -0.45619,-0.146995 -0.18247,-0.07603 -0.27371,-0.197682 -0.0912,-0.121651 -0.0912,-0.329471 0,-0.258508 0.12672,-0.425777 0.13179,-0.172339 0.34975,-0.253439 0.22302,-0.08617 0.49167,-0.08617 0.30919,0 0.53729,0.101376 0.23316,0.101376 0.35481,0.268645 l -0.13685,0.162201 q -0.12672,-0.162201 -0.32947,-0.238232 -0.20276,-0.0811 -0.44606,-0.0811 -0.18247,0 -0.34467,0.05069 -0.1622,0.05069 -0.26358,0.16727 -0.0963,0.111513 -0.0963,0.304126 0,0.152064 0.071,0.238233 0.076,0.08617 0.22302,0.141926 0.147,0.05069 0.36495,0.111513 0.3092,0.07603 0.53223,0.157132 0.22302,0.0811 0.34467,0.212889 0.12165,0.12672 0.12165,0.359883 0,0.359884 -0.27371,0.567704 -0.27371,0.20782 -0.72484,0.20782 z m 1.59667,-0.05069 v -2.635766 h 0.25344 v 2.635766 z m 0,-3.233882 v -0.466327 h 0.25344 v 0.466327 z m 2.11369,3.274432 q -0.26865,0 -0.50181,-0.111513 -0.2281,-0.111513 -0.39537,-0.304127 -0.1622,-0.197682 -0.25851,-0.435915 -0.0912,-0.243301 -0.0912,-0.501809 0,-0.268645 0.0862,-0.517016 0.0912,-0.24837 0.25343,-0.435915 0.16727,-0.192613 0.3903,-0.304127 0.22303,-0.111513 0.49674,-0.111513 0.34468,0 0.59812,0.182476 0.2585,0.177408 0.43591,0.435915 v -0.572772 h 0.23317 v 2.686454 q 0,0.354814 -0.17234,0.598116 -0.17234,0.243301 -0.45619,0.359883 -0.28385,0.121651 -0.61333,0.121651 -0.46125,0 -0.73497,-0.16727 -0.26864,-0.16727 -0.43591,-0.440984 l 0.17234,-0.116582 q 0.15713,0.263577 0.42577,0.390296 0.26865,0.12672 0.57277,0.12672 0.26865,0 0.49168,-0.101376 0.22809,-0.09631 0.35988,-0.293989 0.13686,-0.192614 0.13686,-0.476465 V 39.86335 q -0.15714,0.258508 -0.43085,0.41564 -0.26864,0.152063 -0.56263,0.152063 z m 0.0608,-0.217957 q 0.16727,0 0.3244,-0.06083 0.15714,-0.06083 0.28892,-0.162201 0.13179,-0.106444 0.21796,-0.233164 0.0862,-0.126719 0.10138,-0.253439 v -0.866761 q -0.076,-0.202751 -0.23317,-0.359883 -0.15206,-0.162201 -0.34467,-0.248371 -0.19262,-0.09124 -0.39537,-0.09124 -0.23823,0 -0.42578,0.101376 -0.18754,0.101376 -0.31933,0.268645 -0.12672,0.162201 -0.19768,0.370021 -0.0659,0.202752 -0.0659,0.405503 0,0.228095 0.0811,0.430846 0.0811,0.202751 0.22303,0.364952 0.147,0.157132 0.33454,0.24837 0.19261,0.08617 0.41057,0.08617 z m 4.13106,0.177407 h -0.25344 v -1.469946 q 0,-0.506878 -0.147,-0.740042 -0.14192,-0.238233 -0.45619,-0.238233 -0.22302,0 -0.44098,0.106445 -0.21289,0.106444 -0.37509,0.293989 -0.15713,0.182476 -0.2281,0.41564 v 1.632147 h -0.25343 v -2.635766 h 0.23823 v 0.628529 q 0.10644,-0.202751 0.28385,-0.349746 0.17741,-0.152063 0.39536,-0.238232 0.21796,-0.08617 0.45113,-0.08617 0.21795,0 0.36495,0.0811 0.15206,0.07603 0.2433,0.223026 0.0963,0.146995 0.13686,0.364952 0.0406,0.217958 0.0406,0.496741 z m 1.88558,0.05069 q -0.27878,0 -0.51701,-0.106445 -0.23824,-0.111513 -0.41564,-0.299058 -0.17234,-0.192613 -0.27372,-0.440984 -0.0963,-0.253439 -0.0963,-0.532221 0,-0.37509 0.16727,-0.679217 0.16727,-0.304127 0.46125,-0.486603 0.29399,-0.187545 0.65895,-0.187545 0.37509,0 0.66401,0.187545 0.28892,0.187545 0.45619,0.496741 0.17233,0.304126 0.17233,0.669079 0,0.03041 0,0.06083 0,0.03041 -0.005,0.05069 h -2.31137 q 0.0203,0.299058 0.16727,0.542359 0.147,0.243302 0.37509,0.385227 0.23317,0.136858 0.50688,0.136858 0.27371,0 0.51702,-0.141926 0.2433,-0.141926 0.3396,-0.364952 l 0.22303,0.06083 q -0.076,0.187545 -0.2433,0.334539 -0.1622,0.146995 -0.38523,0.233164 -0.21796,0.0811 -0.46126,0.0811 z m -1.04924,-1.464878 h 2.08327 q -0.0203,-0.309195 -0.1622,-0.547428 -0.14192,-0.238233 -0.37509,-0.37509 -0.22809,-0.136857 -0.50688,-0.136857 -0.27878,0 -0.50687,0.136857 -0.2281,0.136857 -0.37002,0.37509 -0.14193,0.238233 -0.16221,0.547428 z m 4.13106,-0.993481 q -0.35481,0.01014 -0.62346,0.212889 -0.26357,0.197683 -0.37002,0.547428 v 1.647354 h -0.25344 v -2.635766 h 0.2433 v 0.648804 q 0.13686,-0.278783 0.36496,-0.451121 0.22809,-0.177408 0.48153,-0.202751 0.0507,-0.0051 0.0912,-0.0051 0.0406,0 0.0659,0 z m 1.58942,3.066612 v -4.587246 h 0.22809 v 4.587246 z m 2.32438,-0.658941 v -3.598834 h 0.25851 v 3.598834 z m 3.71542,-3.36567 h -1.31788 v 3.36567 h -0.25851 v -3.36567 h -1.31788 v -0.233164 h 2.89427 z m 3.98189,3.132506 v 0.233164 h -2.39753 v -3.598834 h 2.35191 v 0.233164 h -2.0934 v 1.41419 h 1.82983 v 0.223026 h -1.82983 v 1.49529 z m 0.60825,-2.402602 0.84142,1.089788 0.0406,0.07096 0.0405,-0.07096 0.83635,-1.089788 h 0.29399 l -1.0239,1.322952 1.01883,1.312814 h -0.29399 l -0.83128,-1.084719 -0.0405,-0.06589 -0.0406,0.06589 -0.83635,1.084719 h -0.28892 l 1.01376,-1.312814 -1.01883,-1.322952 z m 3.82186,2.686454 q -0.33961,0 -0.60825,-0.177408 -0.26358,-0.182476 -0.42578,-0.440983 v 1.647353 h -0.25344 v -3.715416 h 0.23316 v 0.527153 q 0.16221,-0.253439 0.43085,-0.410571 0.26865,-0.162201 0.5677,-0.162201 0.27879,0 0.50688,0.116582 0.2281,0.111513 0.39537,0.309196 0.17234,0.192613 0.26357,0.435915 0.0963,0.243301 0.0963,0.506878 0,0.364952 -0.15206,0.679216 -0.15207,0.309196 -0.42578,0.496741 -0.26865,0.187545 -0.62853,0.187545 z m -0.0608,-0.228095 q 0.23316,0 0.41564,-0.09631 0.18754,-0.09631 0.31933,-0.258508 0.13179,-0.162201 0.20275,-0.364952 0.071,-0.202751 0.071,-0.41564 0,-0.228095 -0.0811,-0.430846 -0.0811,-0.20782 -0.22809,-0.364953 -0.14193,-0.157132 -0.33454,-0.24837 -0.18755,-0.09631 -0.41057,-0.09631 -0.13686,0 -0.29399,0.05576 -0.15207,0.05576 -0.29399,0.157132 -0.13686,0.101376 -0.2281,0.233164 -0.0912,0.12672 -0.11151,0.263577 v 0.866761 q 0.0912,0.192614 0.23316,0.354815 0.147,0.157132 0.33961,0.253439 0.19262,0.09124 0.40044,0.09124 z m 2.99564,0.228095 q -0.27878,0 -0.51702,-0.106445 -0.23823,-0.111513 -0.41564,-0.299058 -0.17233,-0.192613 -0.27371,-0.440984 -0.0963,-0.253439 -0.0963,-0.532221 0,-0.37509 0.16727,-0.679217 0.16727,-0.304127 0.46126,-0.486603 0.29399,-0.187545 0.65894,-0.187545 0.37509,0 0.66401,0.187545 0.28892,0.187545 0.45619,0.496741 0.17234,0.304126 0.17234,0.669079 0,0.03041 0,0.06083 0,0.03041 -0.005,0.05069 h -2.31136 q 0.0203,0.299058 0.16727,0.542359 0.14699,0.243302 0.37509,0.385227 0.23316,0.136858 0.50688,0.136858 0.27371,0 0.51701,-0.141926 0.2433,-0.141926 0.33961,-0.364952 l 0.22303,0.06083 q -0.076,0.187545 -0.2433,0.334539 -0.1622,0.146995 -0.38523,0.233164 -0.21796,0.0811 -0.46126,0.0811 z m -1.04924,-1.464878 h 2.08327 q -0.0203,-0.309195 -0.1622,-0.547428 -0.14193,-0.238233 -0.37509,-0.37509 -0.22809,-0.136857 -0.50688,-0.136857 -0.27878,0 -0.50688,0.136857 -0.22809,0.136857 -0.37002,0.37509 -0.14192,0.238233 -0.1622,0.547428 z m 4.13106,-0.993481 q -0.35481,0.01014 -0.62346,0.212889 -0.26358,0.197683 -0.37002,0.547428 v 1.647354 h -0.25344 v -2.635766 h 0.2433 v 0.648804 q 0.13686,-0.278783 0.36495,-0.451121 0.2281,-0.177408 0.48154,-0.202751 0.0507,-0.0051 0.0912,-0.0051 0.0406,0 0.0659,0 z m 1.65749,2.280951 q -0.0253,0.01014 -0.10137,0.05069 -0.076,0.04055 -0.19262,0.07603 -0.11658,0.03041 -0.25851,0.03041 -0.13685,0 -0.2585,-0.05069 -0.11658,-0.05576 -0.18755,-0.162201 -0.071,-0.106445 -0.071,-0.258508 v -1.986962 h -0.37002 v -0.20782 h 0.37002 v -0.902242 h 0.25344 v 0.902242 h 0.61332 v 0.20782 h -0.61332 v 1.926137 q 0.0101,0.146994 0.10644,0.223026 0.0963,0.07096 0.22303,0.07096 0.15713,0 0.27371,-0.05069 0.11659,-0.05576 0.13686,-0.07096 z m 1.27733,0.177408 q -0.31426,0 -0.58291,-0.106445 -0.26864,-0.106444 -0.47139,-0.324402 l 0.11658,-0.177407 q 0.21796,0.20782 0.44098,0.304127 0.22303,0.09124 0.48661,0.09124 0.3396,0 0.54742,-0.141926 0.21289,-0.141926 0.21289,-0.395365 0,-0.172338 -0.10137,-0.263576 -0.0963,-0.09631 -0.28385,-0.152064 -0.18248,-0.06083 -0.44606,-0.126719 -0.26864,-0.07096 -0.45619,-0.146995 -0.18247,-0.07603 -0.27371,-0.197682 -0.0912,-0.121651 -0.0912,-0.329471 0,-0.258508 0.12672,-0.425777 0.13179,-0.172339 0.34975,-0.253439 0.22302,-0.08617 0.49167,-0.08617 0.30919,0 0.53729,0.101376 0.23316,0.101376 0.35481,0.268645 l -0.13685,0.162201 q -0.12672,-0.162201 -0.32947,-0.238232 -0.20276,-0.0811 -0.44606,-0.0811 -0.18247,0 -0.34467,0.05069 -0.1622,0.05069 -0.26358,0.16727 -0.0963,0.111513 -0.0963,0.304126 0,0.152064 0.071,0.238233 0.076,0.08617 0.22302,0.141926 0.147,0.05069 0.36495,0.111513 0.3092,0.07603 0.53223,0.157132 0.22302,0.0811 0.34467,0.212889 0.12165,0.12672 0.12165,0.359883 0,0.359884 -0.27371,0.567704 -0.27371,0.20782 -0.72484,0.20782 z"
         id="text46"
         aria-label="Web &amp; Graphics Designer | IT Experts" /></g></g></svg>
